<svg width="128" height="128" viewBox="0 0 128 128" fill="none" xmlns="http://www.w3.org/2000/svg">
<path d="M117 92.3836C113.145 93.356 110.76 92.4255 108.621 89.24C103.819 82.1062 98.5174 75.2993 93.4022 68.3666C92.7427 67.4697 92.0578 66.5895 91.2039 65.4745C85.1501 73.5724 79.1048 81.2847 73.4315 89.3071C71.4023 92.1741 69.2717 93.4231 65.4838 92.4088L88.2446 62.1214L67.0565 34.768C70.7006 34.0639 73.2201 34.4243 75.4523 37.6601C80.3815 44.8023 85.8181 51.6009 91.2377 58.7934C96.6912 51.626 102.06 44.8191 107.133 37.7439C109.171 34.877 111.361 33.7872 115.022 34.8435C112.248 38.49 109.534 42.0779 106.803 45.6406C103.117 50.444 99.4982 55.3061 95.6766 60.0089C94.3153 61.6855 94.5351 62.7753 95.7527 64.3596C102.821 73.5724 109.805 82.8774 117 92.3836ZM11.0254 61.6184C11.6341 58.5922 12.04 55.5073 12.8855 52.5397C17.9584 34.5752 38.7577 27.1061 53.0466 38.2385C61.417 44.7688 63.4969 53.9732 63.0826 64.3512H15.9039C15.1937 82.9696 28.7132 94.2111 45.9444 88.4772C51.9897 86.4653 55.5493 81.7709 57.3333 75.9029C58.2379 72.9605 59.7345 72.4994 62.5246 73.3377C61.0957 80.6811 57.8575 86.8174 51.0935 90.6568C40.9475 96.4074 26.4641 94.5464 18.8462 86.5575C14.3482 81.8631 12.4373 76.0202 11.5918 69.7079C11.465 68.702 11.2029 67.7128 11 66.7152C11.0169 65.0163 11.0254 63.3174 11.0254 61.6184ZM15.9884 60.3694H58.6269C58.3479 46.9064 49.8929 37.3416 38.3349 37.2577C25.6525 37.1571 16.538 46.4957 15.9884 60.3694Z" fill="#F4F3EE"/>
</svg>
