<svg width="128" height="128" viewBox="0 0 128 128" fill="none" xmlns="http://www.w3.org/2000/svg">
<g clip-path="url(#clip0_133_40)">
<path d="M35.67 89.4533C35.4271 89.4535 35.1871 89.4005 34.9668 89.2981C34.7465 89.1958 34.5512 89.0465 34.3947 88.8607C34.2381 88.6749 34.1241 88.4572 34.0605 88.2227C33.9969 87.9883 33.9854 87.7427 34.0267 87.5033L44.5767 26.7767C44.687 26.0992 45.0057 25.4729 45.4884 24.9848C45.9711 24.4968 46.5938 24.1712 47.27 24.0533C47.9434 23.9234 48.6406 24.0086 49.2628 24.297C49.885 24.5853 50.4006 25.0622 50.7367 25.66L60.21 41.9933C60.4319 42.3761 60.4927 42.8314 60.3789 43.259C60.2651 43.6866 59.9862 44.0514 59.6034 44.2733C59.2206 44.4952 58.7653 44.556 58.3377 44.4422C57.9101 44.3284 57.5453 44.0495 57.3234 43.6667L47.8534 27.3367L37.3067 88.07C37.2401 88.4562 37.0395 88.8066 36.7402 89.0596C36.4408 89.3126 36.0619 89.452 35.67 89.4533Z" fill="#F4F3EE"/>
<path d="M64.0001 104.006C62.4501 104.006 60.9001 103.616 59.4901 102.836L34.8601 89.2598C34.6349 89.1343 34.4418 88.9584 34.2957 88.7459C34.1497 88.5334 34.0547 88.2901 34.0183 88.0348C33.9818 87.7796 34.0048 87.5194 34.0855 87.2745C34.1662 87.0296 34.3024 86.8067 34.4834 86.6231L80.5501 40.3965C80.9816 39.9656 81.5229 39.661 82.1152 39.5159C82.7075 39.3708 83.3283 39.3906 83.9101 39.5731C85.1001 39.9531 85.9768 40.9598 86.1935 42.1998L93.9801 87.5165C94.0382 87.8578 93.9885 88.2088 93.838 88.5206C93.6874 88.8324 93.4435 89.0896 93.1401 89.2565L68.5101 102.836C67.1303 103.603 65.5783 104.005 64.0001 104.006ZM38.4068 87.4065L61.1001 99.9165C62.9168 100.92 65.0834 100.916 66.9001 99.9165L90.4901 86.9098L82.9034 42.7631L82.9001 42.7465L38.4068 87.4065Z" fill="#F4F3EE"/>
<path d="M35.6669 89.4533C35.381 89.4543 35.0998 89.3815 34.8502 89.2421C34.6007 89.1027 34.3913 88.9014 34.2422 88.6575C34.0931 88.4136 34.0094 88.1354 33.9991 87.8497C33.9889 87.5641 34.0524 87.2806 34.1835 87.0266L61.1102 34.6333C61.3833 34.0976 61.7967 33.646 62.3062 33.3266C62.8157 33.0073 63.4023 32.8322 64.0036 32.82C64.607 32.7982 65.2046 32.9456 65.7288 33.2453C66.253 33.5451 66.683 33.9855 66.9702 34.5166L75.0869 48.8833C75.28 49.2664 75.3184 49.7091 75.1939 50.1197C75.0694 50.5303 74.7917 50.8772 74.4183 51.0885C74.045 51.2999 73.6046 51.3594 73.1885 51.2548C72.7724 51.1502 72.4126 50.8894 72.1835 50.5266L64.0669 36.16L37.1469 88.5466C37.0079 88.8196 36.796 89.0488 36.5348 89.2088C36.2736 89.3688 35.9732 89.4535 35.6669 89.4533Z" fill="#F4F3EE"/>
</g>
<defs>
<clipPath id="clip0_133_40">
<rect width="80" height="80" fill="white" transform="translate(24 24)"/>
</clipPath>
</defs>
</svg>
