<svg width="128" height="128" viewBox="0 0 128 128" fill="none" xmlns="http://www.w3.org/2000/svg">
<path d="M110.21 59.2687L68.7403 17.7915C66.3537 15.4028 62.4803 15.4028 60.09 17.7915L51.4803 26.4054L62.4036 37.3312C64.9429 36.4741 67.8532 37.049 69.8764 39.0727C70.8406 40.038 71.5137 41.2552 71.8188 42.5851C72.1239 43.915 72.0487 45.304 71.6016 46.5931L82.1292 57.1246C84.676 56.2463 87.6157 56.8138 89.6486 58.8517C92.4927 61.6942 92.4927 66.3022 89.6486 69.1462C88.9728 69.8225 88.1703 70.359 87.2871 70.7251C86.4038 71.0911 85.4572 71.2796 84.5011 71.2796C83.5451 71.2796 82.5984 71.0911 81.7152 70.7251C80.8319 70.359 80.0295 69.8225 79.3536 69.1462C78.3382 68.1299 77.646 66.8358 77.3641 65.4269C77.0823 64.018 77.2235 62.5572 77.7698 61.2284L67.9525 51.4081L67.951 77.2521C68.6633 77.603 69.3136 78.0676 69.8764 78.6278C72.7197 81.4703 72.7197 86.0767 69.8764 88.9252C67.0331 91.7677 62.4247 91.7677 59.5844 88.9252C56.7418 86.0775 56.5086 81.471 59.3504 78.6278C60.0531 77.9256 60.7461 77.3951 61.4985 77.0399V50.9565C60.7461 50.6013 60.0539 50.0745 59.3496 49.3679C57.197 47.2155 56.7945 44.0547 57.899 41.4087L47.1901 30.6371L18.7841 59.0768C16.3953 61.4677 16.4103 65.3419 18.7992 67.7313L60.2758 109.209C62.6632 111.597 66.5395 111.597 68.9306 109.209L110.207 67.924C112.596 65.5338 112.598 61.6573 110.21 59.2687Z" fill="#F4F3EE"/>
</svg>
