<svg width="128" height="128" viewBox="0 0 128 128" fill="none" xmlns="http://www.w3.org/2000/svg">
<path d="M115.003 59.2787L68.7313 12.9989C66.0683 10.3337 61.7465 10.3337 59.0793 12.9989L49.4728 22.6103L61.6609 34.8012C64.4942 33.8447 67.7415 34.4863 69.9989 36.7443C71.0748 37.8213 71.8258 39.1794 72.1663 40.6633C72.5067 42.1473 72.4227 43.6971 71.9239 45.1355L83.6705 56.8864C86.5122 55.9065 89.7922 56.5396 92.0606 58.8135C95.234 61.9851 95.234 67.1267 92.0606 70.2999C91.3065 71.0546 90.4111 71.6532 89.4256 72.0617C88.4401 72.4701 87.3838 72.6803 86.317 72.6803C85.2503 72.6803 84.194 72.4701 83.2085 72.0617C82.223 71.6532 81.3276 71.0546 80.5735 70.2999C79.4405 69.1659 78.6681 67.7221 78.3537 66.15C78.0392 64.578 78.1967 62.948 78.8063 61.4653L67.8523 50.508L67.8506 79.3444C68.6454 79.7359 69.371 80.2544 69.9989 80.8794C73.1715 84.051 73.1715 89.1909 69.9989 92.3692C66.8264 95.5408 61.6844 95.5408 58.5152 92.3692C55.3435 89.1917 55.0832 84.0519 58.2541 80.8794C59.0382 80.096 59.8114 79.504 60.6509 79.1076V50.0041C59.8114 49.6078 59.039 49.02 58.2533 48.2315C55.8514 45.8299 55.4023 42.3031 56.6347 39.3507L44.6858 27.3319L12.9907 59.0646C10.3253 61.7324 10.342 66.0552 13.0075 68.7213L59.2867 115.001C61.9505 117.666 66.2757 117.666 68.9437 115.001L115 68.9362C117.665 66.2693 117.668 61.944 115.003 59.2787Z" fill="#836B9C"/>
</svg>
