<svg width="128" height="128" viewBox="0 0 128 128" fill="none" xmlns="http://www.w3.org/2000/svg">
<g clip-path="url(#clip0_134_56)">
<path d="M52.6667 36L60.4667 43.8M64 52.3334V75.6667M101.367 61.6334L66.3667 26.6334C65.7422 26.0125 64.8973 25.6641 64.0167 25.6641C63.1361 25.6641 62.2912 26.0125 61.6667 26.6334L26.6334 61.6334C26.0125 62.2579 25.6641 63.1028 25.6641 63.9834C25.6641 64.864 26.0125 65.7088 26.6334 66.3334L61.6334 101.333C62.2579 101.954 63.1028 102.303 63.9834 102.303C64.864 102.303 65.7088 101.954 66.3334 101.333L101.333 66.3334C101.954 65.7088 102.303 64.864 102.303 63.9834C102.303 63.1028 101.954 62.2579 101.333 61.6334H101.367Z" stroke="#F4F3EE" stroke-width="3" stroke-linecap="round" stroke-linejoin="round"/>
<path d="M64 52.3335C66.7614 52.3335 69 50.0949 69 47.3335C69 44.5721 66.7614 42.3335 64 42.3335C61.2386 42.3335 59 44.5721 59 47.3335C59 50.0949 61.2386 52.3335 64 52.3335Z" stroke="#F4F3EE" stroke-width="3" stroke-linecap="round" stroke-linejoin="round"/>
<path d="M80.6665 69C83.4279 69 85.6665 66.7614 85.6665 64C85.6665 61.2386 83.4279 59 80.6665 59C77.9051 59 75.6665 61.2386 75.6665 64C75.6665 66.7614 77.9051 69 80.6665 69Z" stroke="#F4F3EE" stroke-width="3" stroke-linecap="round" stroke-linejoin="round"/>
<path d="M64 85.6665C66.7614 85.6665 69 83.4279 69 80.6665C69 77.9051 66.7614 75.6665 64 75.6665C61.2386 75.6665 59 77.9051 59 80.6665C59 83.4279 61.2386 85.6665 64 85.6665Z" stroke="#F4F3EE" stroke-width="3" stroke-linecap="round" stroke-linejoin="round"/>
<path d="M67.5 50.8999L77.1 60.4999" stroke="#F4F3EE" stroke-width="3" stroke-linecap="round" stroke-linejoin="round"/>
</g>
<defs>
<clipPath id="clip0_134_56">
<rect width="80" height="80" fill="white" transform="translate(24 24)"/>
</clipPath>
</defs>
</svg>
