<svg width="128" height="128" viewBox="0 0 128 128" fill="none" xmlns="http://www.w3.org/2000/svg">
<path d="M32.2 103.8C24.1 103.8 19.2 99.9 16.2 94.8L19.5 92.6C22.3 97.4 26.5 100.1 32.1 100.1C39.7 100.1 45 95.5 45 86V35H49.1V86.2C49.1 97.8 41.8 103.8 32.2 103.8ZM86.0586 103.8C73.1586 103.8 66.5586 97 63.2586 90.2L66.7586 88.5C69.9586 94.5 75.0586 100.2 85.9586 100.2C94.8586 100.2 102.159 95 102.159 86.4C102.159 78.5 97.7586 74.2 88.2586 69.8L81.9586 66.9C72.4586 62.5 67.7586 58 67.7586 49.4C67.7586 40 75.2586 34.2 84.4586 34.2C93.5586 34.2 98.6586 38.9 101.859 44L98.6586 46.1C95.8586 41.6 91.9586 37.8 84.4586 37.8C76.4586 37.8 71.7586 42.4 71.7586 49.3C71.7586 56.1 75.1586 59.4 83.5586 63.3L89.8586 66.2C100.859 71.2 106.159 77 106.159 86.4C106.159 97 97.7586 103.8 86.0586 103.8Z" fill="#F4F3EE"/>
</svg>
