<svg width="128" height="128" viewBox="0 0 128 128" fill="none" xmlns="http://www.w3.org/2000/svg">
<path d="M34.3 103.9C23.1 103.9 16.6 98.1 13.3 91.1L24.7 84.2C26.9 88.1 28.9 91.4 33.7 91.4C38.3 91.4 41.2 89.6 41.2 82.6V35H55.2V82.8C55.2 97.3 46.7 103.9 34.3 103.9ZM88.3094 103.9C75.3094 103.9 66.9094 97.7 62.8094 89.6L74.2094 83C77.2094 87.9 81.1094 91.5 88.0094 91.5C93.8094 91.5 97.5094 88.6 97.5094 84.6C97.5094 79.8 93.7094 78.1 87.3094 75.3L83.8094 73.8C73.7094 69.5 67.0094 64.1 67.0094 52.7C67.0094 42.2 75.0094 34.2 87.5094 34.2C96.4094 34.2 102.809 37.3 107.409 45.4L96.5094 52.4C94.1094 48.1 91.5094 46.4 87.5094 46.4C83.4094 46.4 80.8094 49 80.8094 52.4C80.8094 56.6 83.4094 58.3 89.4094 60.9L92.9094 62.4C104.809 67.5 111.509 72.7 111.509 84.4C111.509 97 101.609 103.9 88.3094 103.9Z" fill="#836B9C"/>
</svg>
