<svg width="128" height="128" viewBox="0 0 128 128" fill="none" xmlns="http://www.w3.org/2000/svg">
<path d="M66.1032 105C65.9178 105 65.7337 104.969 65.5581 104.91L63.555 104.223C63.2203 104.108 62.9309 103.891 62.7284 103.601C62.5259 103.312 62.4207 102.966 62.428 102.613C62.428 102.56 62.5183 97.7571 61.4649 94.7972C58.5294 92.4394 55.9176 89.7072 53.6965 86.671C52.5969 85.1776 51.596 83.6143 50.7002 81.9912C47.3383 75.9559 45.7244 69.1084 46.0385 62.2123C46.6337 49.3363 51.8104 37.6403 60.2343 30.1307C61.5886 28.9208 62.2942 27.7708 62.5216 26.4076C62.5828 26.0335 62.7703 25.6915 63.0531 25.4381C63.3358 25.1847 63.697 25.0352 64.0766 25.0143C64.9127 24.901 65.5648 25.4743 65.7821 26.2243C66.16 27.5642 66.8556 29.0241 67.6883 30.224C67.9725 30.764 68.6949 31.5373 69.3336 32.2139C72.4704 35.5471 78.9947 42.4867 82.1248 56.6726C85.2382 75.3583 76.5669 86.8976 71.1227 92.124C69.9222 93.2906 68.9825 94.0206 68.5243 94.3672C68.2248 94.7388 68.0103 95.1711 67.8956 95.6338C67.4709 97.5871 67.6582 101.77 67.7685 103.217C67.788 103.492 67.7393 103.767 67.6267 104.019C67.5142 104.27 67.3412 104.491 67.1231 104.66C66.8288 104.88 66.4711 104.999 66.1032 105ZM64.1335 30.8273C63.6364 31.4721 63.0788 32.0681 62.4681 32.6073C54.7064 39.5235 49.9377 50.3696 49.3793 62.3656C49.0976 68.65 50.5713 74.889 53.6363 80.388C54.4489 81.8613 55.3786 83.3145 56.3952 84.6978C59.6557 89.1242 62.933 91.7341 63.8593 92.4307C64.0983 92.6076 64.2844 92.8462 64.3977 93.1206C64.5515 93.484 64.6886 93.8739 64.809 94.2772C65.0632 93.5273 65.4745 92.8107 66.053 92.104C66.1429 91.9939 66.2463 91.8953 66.3607 91.8107C66.6717 91.5874 67.5846 90.9074 68.6815 89.8775C73.7746 84.9478 81.6901 74.395 78.8443 57.3026C75.9248 44.0966 70.0492 37.8503 66.8957 34.4905C65.8323 33.3605 65.13 32.6139 64.7856 31.8473C64.5534 31.517 64.3358 31.1767 64.1335 30.8273Z" fill="#F4F3EE"/>
</svg>
