<svg width="128" height="128" viewBox="0 0 128 128" fill="none" xmlns="http://www.w3.org/2000/svg">
<path fill-rule="evenodd" clip-rule="evenodd" d="M85.8197 58.5754C85.5219 54.7076 84.6158 50.9779 83.3555 47.3241C80.7448 39.1655 76.5551 31.9451 70.6536 25.7324C69.1616 24.1611 67.5021 22.7214 66.4615 20.7657C65.8032 19.5286 65.1763 18.2746 64.5349 17.0279L64.1285 16C64.0601 16.2358 64.0166 16.3198 64.0142 16.4045C63.9619 18.4369 62.8143 19.8153 61.385 21.1016C59.7778 22.5494 58.2817 24.1207 56.7374 25.6379L51.9883 31.9063C50.7071 34.2682 49.4275 36.63 48.1479 38.9919L45.5807 45.9498L45.5034 46.058C44.0902 50.7155 43.3933 55.5038 43.0504 60.3405C42.9217 62.1582 43.0681 64.0024 43.1704 65.8297C43.316 68.4419 43.7683 71.0096 44.4467 73.537C46.911 82.7196 51.9119 90.3364 58.7485 96.8075C60.0192 98.0098 61.323 99.1031 62.6493 100.247C62.8762 99.4681 63.0573 98.6889 63.2633 97.9097C63.4693 97.1337 63.6778 96.3617 63.817 95.5833C63.677 96.3617 63.52 97.1337 63.3647 97.9097L62.7 100.247L63.2939 102.267L63.8444 105.403L64.1067 108.676C64.1043 109.34 64.0778 110.006 64.118 110.67C64.1277 110.84 64.3498 110.996 64.4737 111.159L65.5811 111.549L66.7351 112L66.5372 109.091L66.5283 106.226L66.9267 101.861L67.2156 100.911L68.0421 99.4414C69.0626 98.6178 70.1579 97.8701 71.0874 96.9536C72.7694 95.2951 74.4474 93.6155 75.9523 91.7995C77.9111 89.4457 79.5837 86.8663 80.9347 84.1157C81.8377 82.2714 82.6875 80.39 83.3909 78.4626C84.0106 76.7637 84.3945 74.9783 84.883 73.231C84.9264 73.105 84.9844 72.9815 85.0117 72.8531C86.0209 68.1367 86.1907 63.3726 85.8197 58.5754Z" fill="#F4F3EE"/>
</svg>
