<svg width="128" height="128" viewBox="0 0 128 128" fill="none" xmlns="http://www.w3.org/2000/svg">
<path fill-rule="evenodd" clip-rule="evenodd" d="M87.8029 58.1234C87.4775 53.9333 86.487 49.8928 85.1095 45.9345C82.2559 37.0959 77.6765 29.2738 71.2261 22.5435C69.5952 20.8412 67.7814 19.2815 66.644 17.1628C65.9244 15.8227 65.2392 14.4642 64.5381 13.1136L64.0939 12C64.0191 12.2554 63.9716 12.3464 63.969 12.4383C63.9118 14.64 62.6574 16.1332 61.0952 17.5267C59.3385 19.0952 57.7033 20.7974 56.0152 22.4411L50.8245 29.2319C49.4241 31.7905 48.0254 34.3492 46.6268 36.9079L43.8207 44.4457L43.7363 44.5629C42.1916 49.6085 41.4299 54.7958 41.0551 60.0356C40.9144 62.0047 41.0745 64.0026 41.1862 65.9822C41.3454 68.812 41.8398 71.5938 42.5813 74.3318C45.2748 84.2795 50.7409 92.5311 58.2135 99.5414C59.6024 100.844 61.0275 102.028 62.4771 103.268C62.7252 102.424 62.9231 101.58 63.1483 100.735C63.3735 99.8948 63.6013 99.0586 63.7535 98.2153C63.6004 99.0586 63.4289 99.8948 63.2591 100.735L62.5325 103.268L63.1817 105.456L63.7834 108.853L64.0701 112.399C64.0675 113.119 64.0385 113.84 64.0825 114.559C64.093 114.743 64.3358 114.913 64.4713 115.089L65.6817 115.512L66.9431 116L66.7267 112.848L66.717 109.745L67.1524 105.017L67.4682 103.987L68.3716 102.395C69.487 101.503 70.6842 100.693 71.7002 99.6998C73.5386 97.903 75.3727 96.0835 77.0176 94.1162C79.1587 91.5662 80.9868 88.7718 82.4635 85.792C83.4505 83.794 84.3794 81.7558 85.1482 79.6678C85.8255 77.8273 86.2451 75.8932 86.779 74.0002C86.8265 73.8638 86.8899 73.7299 86.9198 73.5908C88.0229 68.4814 88.2085 63.3203 87.8029 58.1234Z" fill="#836B9C"/>
</svg>
