<svg width="128" height="128" viewBox="0 0 128 128" fill="none" xmlns="http://www.w3.org/2000/svg">
<path d="M112.805 109.703L110.752 107.709C108.806 105.122 106.302 102.849 103.675 100.962C101.58 99.456 96.8758 97.4219 96.0013 94.9815L95.8404 94.8282C97.3264 94.66 99.0613 94.1224 100.433 93.7538C102.736 93.136 104.637 93.2956 107.016 92.681C108.088 92.3744 109.292 92.0671 110.077 91.7606V91.1475C109.292 89.9128 108.171 88.278 106.86 87.1603C103.431 84.2365 99.7631 81.3151 95.9087 78.8786C93.7711 77.5283 91.1665 76.6504 88.9017 75.5052C88.1395 75.1193 86.8199 74.9189 86.3159 74.2776C85.125 72.7591 84.4884 70.8335 83.5699 69.0642C81.6475 65.3568 79.7634 61.3083 78.06 57.4076C76.8982 54.7479 76.1422 52.1259 74.6931 49.7397C67.7379 38.2905 60.2529 31.3811 48.6567 24.5888C46.1879 23.1442 43.2174 22.5744 40.0774 21.8277C38.3943 21.7263 36.7089 21.6233 35.0243 21.5204C33.9951 21.0912 32.9252 19.8313 31.9612 19.2199C28.1178 16.7896 18.2636 11.504 15.4179 18.4535C13.621 22.84 18.1026 27.1188 19.7056 29.3423C20.8321 30.9001 22.2726 32.6489 23.0757 34.4024C23.6055 35.5554 23.6958 36.7115 24.1488 37.9306C25.2619 40.9345 26.2298 44.2026 27.6711 46.9778C28.3988 48.3831 29.2011 49.8623 30.1219 51.1183C30.6855 51.8893 31.6527 52.2289 31.8057 53.4188C30.8606 54.7439 30.8064 56.8016 30.275 58.4804C27.8807 66.0375 28.785 75.4314 32.2665 81.0243C33.3341 82.7424 35.8509 86.4247 39.312 85.0115C42.339 83.7775 41.8444 79.9514 42.7103 76.5765C42.9057 75.8126 42.5651 75.2498 43.3501 74.7366V74.8898C44.1532 76.7555 45.0124 78.5966 45.9265 80.4105C47.9675 83.7013 51.3344 87.1399 54.403 89.4601C55.9942 90.6634 57.4802 92.743 59.0502 93.4473V93.3679H59.2237C58.8257 92.5819 58.2016 92.4507 57.6929 91.95C56.4942 90.7742 55.1605 89.2919 54.1706 87.9439C51.3791 84.1501 48.9126 79.9884 46.6651 75.6656C45.5913 73.6016 44.6579 71.32 43.7536 69.2199C43.4058 68.4103 43.4097 67.1826 42.6828 66.7637C41.6913 68.3026 40.232 69.546 39.4651 71.364C38.2397 74.2689 38.0819 77.812 37.6273 81.4849C37.3581 81.5808 37.4782 81.5147 37.3204 81.6373C35.1868 81.1225 34.4379 78.9242 33.6442 77.0371C31.6385 72.2663 31.2664 64.585 33.0311 59.0943C33.488 57.6725 35.5518 53.1987 34.7158 51.8854C34.317 50.5768 33.0013 49.8183 32.2657 48.8178C31.3543 47.5807 30.4453 45.9521 29.8142 44.5232C28.1727 40.8048 27.4073 36.629 25.6787 32.8689C24.8521 31.0714 23.4556 29.2519 22.3087 27.6548C21.0393 25.8841 19.6169 24.5801 18.6317 22.44C18.2824 21.6791 17.8067 20.4609 18.3256 19.6789C18.4904 19.1515 18.7236 18.9314 19.2448 18.7593C20.1342 18.0731 22.607 18.9872 23.5333 19.3715C25.9896 20.3933 28.04 21.3365 30.1211 22.7166C31.1188 23.38 32.1299 24.2021 33.3373 24.9881H34.7158C36.8722 24.9881 39.2876 25.1704 41.3028 25.7835C44.8628 26.8673 48.0538 28.5673 50.9521 30.3994C59.7803 35.9814 66.9984 43.9338 71.9369 53.4109C72.7313 54.9373 73.0752 56.3968 73.7746 58.0151C75.1861 61.2793 76.9649 64.6393 78.3693 67.8311C79.7713 71.0166 81.1372 74.2304 83.1186 76.8807C84.1603 78.2734 88.1827 79.0217 90.0109 79.7958C91.2929 80.3374 93.3927 80.9033 94.6064 81.635C96.9245 83.0356 99.1704 84.7034 101.346 86.2368C102.433 87.0024 105.774 88.6843 105.941 90.0708C100.554 89.923 96.4394 90.426 92.9217 91.9107C91.9224 92.3328 90.3273 92.3446 90.164 93.5982C90.7135 94.1743 90.7991 95.0357 91.2355 95.7447C92.0747 97.1044 93.4932 98.9294 94.7587 99.8851C96.1418 100.93 97.5659 102.047 99.048 102.952C101.685 104.561 104.627 105.48 107.166 107.092C108.662 108.043 110.273 109.24 111.731 110.313C112.453 110.843 112.43 111.668 114 112V111.848C113.216 111.223 113.257 110.36 112.805 109.703ZM37.4735 31.6428C36.3501 31.6216 35.5 31.7662 34.715 31.9486V32.0633H34.8704C35.4066 32.8493 36.3525 33.8946 37.0143 34.8441L38.5466 38.0728L38.6981 37.9258C39.6472 37.2554 40.0821 36.1881 40.0766 34.5533C39.6974 34.1532 39.6401 33.6525 39.312 33.1747C38.8739 32.5388 38.0253 32.1781 37.4735 31.6428Z" fill="#836B9C"/>
</svg>
