<svg width="129" height="128" viewBox="0 0 129 128" fill="none" xmlns="http://www.w3.org/2000/svg">
<path d="M64 24C41.9375 24 24 41.9375 24 64C24 86.0625 41.9375 104 64 104C86.0625 104 104 86.0625 104 64C104 41.9375 86.0625 24 64 24ZM84.4375 95.5L54.25 50.125H50V81.4375H54.25V58.5625L81.875 97C76.5625 99.875 70.5 101.5 64 101.5C43.25 101.563 26.4375 84.75 26.4375 64C26.4375 43.25 43.25 26.4375 64 26.4375C84.75 26.4375 101.562 43.25 101.562 64C101.562 77.1875 94.75 88.8125 84.4375 95.5Z" fill="#F4F3EE"/>
<path d="M73.125 69.812L77.8125 76.8745V50.1245H73.125V69.812Z" fill="#F4F3EE"/>
</svg>
