<svg width="128" height="128" viewBox="0 0 128 128" fill="none" xmlns="http://www.w3.org/2000/svg">
<path d="M104.485 36.7146L68.5934 15.9628C66.3323 14.6791 63.3702 14.6791 61.0912 15.9628L24.919 36.7146C22.5863 38.0527 21 40.5676 21 43.2575V84.706C21 87.3959 22.6196 89.9116 24.9532 91.257L34.4898 96.6773C39.0649 98.9239 40.3325 98.9239 42.414 98.9239C49.1902 98.9239 52.7092 94.84 52.7092 87.7169V46.7968C52.71 46.2189 53.0718 45.359 52.5018 45.359H47.9307C47.3518 45.359 46.2054 46.2189 46.2054 46.796V87.7161C46.2054 90.8736 43.2653 94.0158 37.9104 91.3469L28.0543 85.6632C27.7111 85.4768 27.5046 85.1015 27.5046 84.706V43.2575C27.5046 42.8669 27.8811 42.4746 28.2291 42.2744L64.3118 21.5582C64.4889 21.4644 64.6864 21.4154 64.887 21.4154C65.0876 21.4154 65.2851 21.4644 65.4623 21.5582L101.208 42.2695C101.55 42.4746 101.495 42.8547 101.495 43.2575V84.706C101.495 85.1015 101.57 85.4865 101.233 85.677L65.3493 106.405C65.0419 106.589 64.6419 106.589 64.3045 106.405L55.1029 100.935C54.8256 100.775 54.4914 100.717 54.2247 100.866C51.6676 102.311 51.1928 102.503 48.7942 103.332C48.2031 103.537 47.3315 103.893 49.1259 104.895L61.1578 111.99C62.3065 112.652 63.6097 113 64.9362 113C66.268 113.002 67.5767 112.654 68.73 111.99L104.486 91.257C106.82 89.9019 108 87.3959 108 84.706V43.2575C107.999 40.5676 106.819 38.0592 104.485 36.7146ZM76.0672 78.1381C66.5323 78.1381 64.4329 75.5162 63.7329 70.7904C63.6499 70.2815 63.2174 69.6728 62.697 69.6728H58.0381C57.4616 69.6728 56.9973 70.3698 56.9973 70.942C56.9973 76.9929 60.2984 84.3243 76.0672 84.3243C87.4812 84.3243 94.0265 79.9032 94.0265 72.0791C94.0265 64.3213 88.7683 62.2855 77.6983 60.825C66.5087 59.3508 65.372 58.606 65.372 55.9931C65.372 53.8389 66.3347 50.9658 74.62 50.9658C82.0222 50.9658 84.7509 52.5494 85.8737 57.5232C85.9705 57.9908 86.399 58.3264 86.8828 58.3264H91.5612C91.849 58.3264 92.1231 58.2105 92.3247 58.0054C92.5206 57.785 92.6231 57.5086 92.5979 57.212C91.8718 48.6462 86.164 44.6547 74.6191 44.6547C64.3484 44.6547 58.2226 48.9777 58.2226 56.224C58.2226 64.0839 64.3183 66.2559 74.1768 67.2277C85.9705 68.3801 86.8877 70.0983 86.8877 72.4105C86.8877 76.4272 83.6532 78.1381 76.0672 78.1381Z" fill="#F4F3EE"/>
</svg>
