<svg width="128" height="128" viewBox="0 0 128 128" fill="none" xmlns="http://www.w3.org/2000/svg">
<path d="M108.121 33.9304L68.5169 11.0611C66.0218 9.64631 62.7534 9.64631 60.2385 11.0611L20.3244 33.9304C17.7504 35.405 16 38.1765 16 41.1409V86.8189C16 89.7833 17.7872 92.5557 20.3621 94.0383L30.8852 100.012C35.9337 102.488 37.3324 102.488 39.6292 102.488C47.1064 102.488 50.9894 97.987 50.9894 90.137V45.0413C50.9903 44.4045 51.3896 43.4569 50.7606 43.4569H45.7167C45.0779 43.4569 43.8128 44.4045 43.8128 45.0404V90.1361C43.8128 93.6158 40.5686 97.0786 34.6597 94.1374L23.784 87.8737C23.4054 87.6683 23.1775 87.2548 23.1775 86.8189V41.1409C23.1775 40.7104 23.5929 40.2781 23.9769 40.0575L63.7923 17.2274C63.9878 17.1241 64.2057 17.07 64.4271 17.07C64.6484 17.07 64.8664 17.1241 65.0618 17.2274L104.505 40.0521C104.883 40.2781 104.822 40.697 104.822 41.1409V86.8189C104.822 87.2548 104.905 87.679 104.533 87.8889L64.9371 110.732C64.598 110.935 64.1566 110.935 63.7842 110.732L53.6308 104.704C53.3248 104.528 52.9561 104.464 52.6618 104.628C49.8401 106.22 49.3162 106.432 46.6695 107.345C46.0172 107.571 45.0554 107.964 47.0355 109.068L60.3121 116.887C61.5796 117.616 63.0175 118 64.4813 118C65.9508 118.002 67.3949 117.618 68.6676 116.887L108.122 94.0383C110.698 92.5449 112 89.7833 112 86.8189V41.1409C111.999 38.1765 110.697 35.4122 108.121 33.9304ZM76.7638 79.5807C66.2425 79.5807 63.926 76.6913 63.1535 71.4833C63.062 70.9224 62.5847 70.2517 62.0105 70.2517H56.8696C56.2335 70.2517 55.7212 71.0198 55.7212 71.6504C55.7212 78.3187 59.3638 86.3982 76.7638 86.3982C89.3586 86.3982 96.5809 81.526 96.5809 72.9035C96.5809 64.3541 90.7788 62.1105 78.5636 60.501C66.2165 58.8764 64.9622 58.0556 64.9622 55.176C64.9622 52.802 66.0245 49.6358 75.1668 49.6358C83.3348 49.6358 86.3458 51.381 87.5848 56.8623C87.6916 57.3777 88.1644 57.7474 88.6982 57.7474H93.8607C94.1783 57.7474 94.4806 57.6197 94.7031 57.3937C94.9193 57.1508 95.0324 56.8462 95.0046 56.5193C94.2034 47.0795 87.9051 42.6807 75.166 42.6807C63.8327 42.6807 57.0733 47.4448 57.0733 55.4306C57.0733 64.0924 63.7995 66.4861 74.6779 67.557C87.6916 68.8271 88.7036 70.7206 88.7036 73.2688C88.7036 77.6953 85.1346 79.5807 76.7638 79.5807Z" fill="#836B9C"/>
</svg>
