<svg width="128" height="128" viewBox="0 0 128 128" fill="none" xmlns="http://www.w3.org/2000/svg">
<path d="M72.3335 80.6668C65.0802 80.6668 57.3335 78.2568 57.3335 71.5002C57.3335 70.5802 58.0802 69.8335 59.0002 69.8335C59.9202 69.8335 60.6668 70.5802 60.6668 71.5002C60.6668 77.1702 71.1402 77.3335 72.3335 77.3335C78.7168 77.3335 84.0002 76.8935 84.0002 71.5002C84.0002 63.9935 57.3335 67.6968 57.3335 56.5002C57.3335 49.7435 65.0802 47.3335 72.3335 47.3335C79.5868 47.3335 87.3335 49.7435 87.3335 56.5002C87.3335 57.4202 86.5868 58.1668 85.6668 58.1668C84.7468 58.1668 84.0002 57.4202 84.0002 56.5002C84.0002 50.8302 73.5268 50.6668 72.3335 50.6668C71.1402 50.6668 60.6668 50.8302 60.6668 56.5002C60.6668 63.9202 87.3335 60.3368 87.3335 71.5002C87.3335 80.6668 77.5735 80.6668 72.3335 80.6668Z" fill="#F4F3EE"/>
<path d="M46.3434 93.2735C45.0667 93.2735 43.7867 92.9468 42.6167 92.2935L40.83 91.2968C40.0267 90.8502 39.7367 89.8368 40.1867 89.0302C40.6334 88.2202 41.65 87.9368 42.4534 88.3868L44.24 89.3835C45.5867 90.1335 47.1934 90.1235 48.5334 89.3335C49.87 88.5468 50.6667 87.1535 50.6667 85.6035V49.0002C50.6667 48.0802 51.4134 47.3335 52.3334 47.3335C53.2534 47.3335 54 48.0802 54 49.0002V85.6035C54 88.3468 52.5867 90.8135 50.22 92.2035C49.0134 92.9202 47.68 93.2735 46.3434 93.2735Z" fill="#F4F3EE"/>
<path d="M64.0067 103.997C63.0967 103.997 62.18 103.76 61.37 103.283L53.1533 98.4901C52.36 98.0268 52.09 97.0068 52.5533 96.2101C53.0167 95.4135 54.0367 95.1401 54.8333 95.6101L63.05 100.403C63.6467 100.75 64.36 100.757 64.96 100.403L94.7 83.0501C95.2933 82.7035 95.6633 82.0468 95.6667 81.3468V46.6435C95.6667 45.9435 95.2933 45.2901 94.6933 44.9368L64.9633 27.5901C64.37 27.2435 63.6433 27.2435 63.0567 27.5901L33.2933 44.9401C32.7 45.2901 32.33 45.9401 32.3333 46.6401V81.3468C32.3333 82.0501 32.7 82.6968 33.2967 83.0468L42.4867 88.4068C43.28 88.8701 43.55 89.8901 43.0867 90.6868C42.6233 91.4835 41.5967 91.7501 40.8067 91.2868L31.6167 85.9268C30.0033 84.9868 29 83.2335 29 81.3468V46.6435C28.9967 44.7635 29.9967 43.0068 31.6133 42.0635L61.3667 24.7168C62.9933 23.7601 65.02 23.7668 66.64 24.7101L96.3767 42.0601C97.9967 43.0101 99 44.7635 99 46.6435V81.3535C98.9967 83.2301 97.9933 84.9801 96.3867 85.9268L66.64 103.283C65.83 103.76 64.9167 103.997 64.0067 103.997Z" fill="#F4F3EE"/>
</svg>
