<svg width="128" height="128" viewBox="0 0 128 128" fill="none" xmlns="http://www.w3.org/2000/svg">
<path d="M59.9962 57.7516C58.7726 58.4581 57.7859 59.5115 57.161 60.7787C56.5361 62.0459 56.301 63.4699 56.4854 64.8708C56.6699 66.2716 57.2656 67.5863 58.1972 68.6485C59.1288 69.7108 60.3545 70.4729 61.7193 70.8386C63.084 71.2042 64.5266 71.157 65.8645 70.7028C67.2024 70.2486 68.3756 69.4078 69.2357 68.2869C70.0957 67.1659 70.6041 65.8151 70.6964 64.4052C70.7888 62.9953 70.461 61.5897 69.7545 60.3661C68.807 58.7255 67.2467 57.5284 65.4168 57.0381C63.5868 56.5478 61.637 56.8044 59.9962 57.7516ZM92.0149 65.5023C91.5459 64.9663 91.051 64.4289 90.5303 63.89C90.894 63.5077 91.246 63.1257 91.5863 62.744C98.0096 55.527 100.721 48.2892 98.2086 43.9379C95.7999 39.766 88.6349 38.5227 79.6649 40.2668C78.7814 40.4396 77.9027 40.6346 77.0289 40.8518C76.8617 40.2751 76.6838 39.7018 76.4952 39.1318C73.4522 29.9617 68.5366 23.9968 63.5124 24C58.6948 24.0022 54.0386 29.5883 51.0682 38.23C50.776 39.0825 50.5056 39.9421 50.2572 40.8088C49.673 40.6655 49.0863 40.5331 48.4972 40.4116C39.0332 38.4685 31.4106 39.7482 28.9035 44.102C26.4995 48.277 29.0136 55.1012 35.0175 61.9904C35.613 62.672 36.2253 63.3384 36.8544 63.9894C36.1127 64.7534 35.4104 65.517 34.7558 66.2762C28.8974 73.0682 26.5271 79.7808 28.9272 83.9378C31.4059 88.2317 38.9213 89.6353 48.0687 87.8353C48.8101 87.6883 49.5473 87.523 50.2804 87.3393C50.549 88.2767 50.8436 89.2061 51.1642 90.1272C54.1215 98.5955 58.7516 104.002 63.5522 104C68.5099 103.997 73.4799 98.1885 76.4911 89.365C76.7289 88.6678 76.954 87.9437 77.1674 87.1981C78.1144 87.4337 79.0675 87.6427 80.0267 87.8252C88.8402 89.4927 95.8367 88.1812 98.2325 84.0213C100.706 79.7242 98.1557 72.5172 92.0149 65.5023ZM31.8651 45.8073C33.4085 43.1273 39.638 42.0817 47.8093 43.7593C48.3316 43.8667 48.8627 43.9867 49.4028 44.1193C48.6051 47.6484 48.0422 51.2264 47.7178 54.83C44.7694 56.9042 41.9584 59.167 39.3023 61.6043C38.7171 60.9991 38.1475 60.3793 37.5936 59.7447C32.4493 53.8419 30.4163 48.3232 31.8651 45.8073ZM47.4116 68.7196C45.3694 67.1732 43.4715 65.589 41.7488 63.9956C43.4703 62.4121 45.3694 60.8332 47.4075 59.291C47.3343 60.8621 47.298 62.4343 47.2986 64.0078C47.2997 65.579 47.3374 67.1496 47.4116 68.7196ZM47.4092 84.482C43.9423 85.2529 40.3631 85.3792 36.8504 84.8545C35.8875 84.7796 34.9501 84.5079 34.0963 84.0564C33.2425 83.6048 32.4904 82.983 31.8864 82.2293C30.4301 79.7066 32.3335 74.3173 37.3437 68.5084C37.9736 67.7804 38.6241 67.0714 39.2953 66.3815C41.9518 68.8316 44.7674 71.1033 47.7238 73.1817C48.0526 76.8313 48.6221 80.4552 49.4286 84.0297C48.7593 84.1971 48.0862 84.3478 47.4092 84.482ZM75.8136 52.3246C74.4721 51.4793 73.1139 50.6611 71.7392 49.87C70.3864 49.0914 69.0174 48.342 67.632 47.6218C70.004 46.6245 72.3356 45.7727 74.5866 45.0785C75.1172 47.4717 75.5268 49.8902 75.8136 52.3246ZM54.3002 39.3408C56.8451 31.9363 60.6107 27.4187 63.5143 27.4175C66.6066 27.416 70.6244 32.2905 73.2516 40.208C73.4222 40.7241 73.5836 41.2431 73.7356 41.7651C70.284 42.8356 66.9071 44.1334 63.627 45.6499C60.3604 44.1155 56.9941 42.8033 53.551 41.7221C53.7811 40.9223 54.0309 40.1286 54.3002 39.3408ZM52.6988 45.0359C55.0467 45.7751 57.3558 46.6322 59.6174 47.6039C56.8152 49.0501 54.0854 50.6253 51.428 52.3295C51.749 49.7775 52.1762 47.3325 52.6988 45.0359ZM51.4338 75.6786C52.759 76.5269 54.1036 77.3439 55.4675 78.1295C56.8588 78.9305 58.2687 79.6979 59.697 80.4317C57.4181 81.4371 55.0891 82.3248 52.7192 83.0914C52.1907 80.763 51.7588 78.275 51.4338 75.6786ZM73.2565 88.2606C72.1924 91.6491 70.5136 94.8128 68.3042 97.5935C67.7582 98.3901 67.0544 99.0665 66.2368 99.5804C65.4192 100.094 64.5048 100.435 63.5503 100.582C60.6375 100.583 56.9197 96.2418 54.3907 89C54.0928 88.1438 53.8188 87.2798 53.5686 86.408C57.0283 85.2919 60.4082 83.9426 63.6853 82.3692C66.9924 83.8955 70.3962 85.203 73.8747 86.2833C73.6848 86.9472 73.4787 87.6063 73.2565 88.2606ZM74.7055 82.9637C72.4286 82.2597 70.0632 81.3936 67.6569 80.3817C69.0134 79.6678 70.3797 78.9139 71.7558 78.12C73.1679 77.3045 74.5441 76.4687 75.8842 75.6124C75.6173 78.0814 75.2238 80.535 74.7055 82.9637ZM76.4906 63.993C76.4936 66.4222 76.4178 68.8495 76.2631 71.2748C74.2924 72.6085 72.2118 73.9108 70.0471 75.1605C67.8914 76.4051 65.7554 77.5489 63.6602 78.5841C61.4553 77.5274 59.293 76.3888 57.1732 75.1681C55.0653 73.9548 53.0057 72.6628 50.9945 71.2921C50.8106 68.8675 50.718 66.4386 50.7166 64.0052C50.715 61.5736 50.806 59.1452 50.9889 56.7187C52.9591 55.3732 55.0245 54.072 57.16 52.839C59.3052 51.6003 61.468 50.4614 63.6187 49.4291C65.7964 50.4875 67.9348 51.6217 70.034 52.8317C72.1404 54.0424 74.2057 55.3206 76.23 56.6664C76.4038 59.1049 76.4905 61.5471 76.4906 63.993ZM80.3175 43.6218C88.0028 42.1269 93.7975 43.1325 95.2491 45.6467C96.7955 48.3251 94.5792 54.2406 89.0338 60.4721C88.7274 60.8158 88.4093 61.1613 88.08 61.5079C85.3779 59.0654 82.5127 56.8097 79.5041 54.7565C79.2005 51.1924 78.6587 47.6526 77.8823 44.1608C78.7098 43.9572 79.5216 43.7775 80.3175 43.6218ZM79.798 59.1605C81.8273 60.6422 83.7784 62.2281 85.6434 63.9119C83.7867 65.6234 81.8417 67.2366 79.8166 68.7451C79.8786 67.1614 79.9091 65.5768 79.9081 63.9914C79.9074 62.3808 79.8707 60.7705 79.798 59.1605ZM95.2704 82.3155C93.8165 84.8401 88.1989 85.8929 80.6615 84.4669C79.7978 84.3038 78.9115 84.1097 78.0026 83.8846C78.7603 80.3479 79.2781 76.7641 79.5524 73.1576C82.5559 71.0685 85.4121 68.7753 88.1007 66.2941C88.5712 66.7828 89.0187 67.2693 89.4432 67.7536C91.8475 70.3677 93.75 73.4019 95.0555 76.7049C95.473 77.5757 95.7075 78.5229 95.7445 79.4879C95.7814 80.453 95.6201 81.4153 95.2704 82.3155Z" fill="#F4F3EE"/>
</svg>
