<svg width="128" height="128" viewBox="0 0 128 128" fill="none" xmlns="http://www.w3.org/2000/svg">
<path d="M64.3002 73.0765C69.3592 73.0765 73.4603 68.9754 73.4603 63.9164C73.4603 58.8575 69.3592 54.7563 64.3002 54.7563C59.2412 54.7563 55.1401 58.8575 55.1401 63.9164C55.1401 68.9754 59.2412 73.0765 64.3002 73.0765Z" fill="#836B9C"/>
<path d="M99.0923 48.8104C97.3245 48.1676 95.4764 47.5248 93.548 46.9623C94.0301 45.0339 94.4319 43.1055 94.7533 41.2574C96.4407 30.651 94.5926 23.1783 89.4501 20.2856C87.9234 19.4018 86.236 19 84.3076 19C78.683 19 71.5317 23.1783 64.3001 30.1689C57.0684 23.1783 49.9171 19 44.2925 19C42.3641 19 40.6767 19.4018 39.15 20.2856C34.0075 23.2586 32.1594 30.7313 33.8468 41.2574C34.1682 43.1055 34.57 45.0339 35.0521 46.9623C33.1237 47.5248 31.2756 48.0872 29.5078 48.8104C19.4639 52.6673 14 57.9705 14 63.9165C14 69.8625 19.5443 75.1657 29.5078 79.0226C31.2756 79.6654 33.1237 80.3082 35.0521 80.8707C34.57 82.7991 34.1682 84.7275 33.8468 86.5756C32.1594 97.182 34.0075 104.655 39.15 107.547C40.6767 108.431 42.3641 108.833 44.2925 108.833C49.9975 108.833 57.1488 104.655 64.3001 97.6641C71.5317 104.655 78.683 108.833 84.3076 108.833C86.236 108.833 87.9234 108.431 89.4501 107.547C94.5926 104.574 96.4407 97.1017 94.7533 86.5756C94.4319 84.7275 94.0301 82.7991 93.548 80.8707C95.4764 80.3082 97.3245 79.7458 99.0923 79.0226C109.136 75.1657 114.6 69.8625 114.6 63.9165C114.6 57.9705 109.136 52.6673 99.0923 48.8104ZM87.2002 24.3032C90.4946 26.2316 91.6196 32.1776 90.2536 40.6146C90.0125 42.3019 89.6108 44.0697 89.1287 45.9178C84.9504 44.9535 80.5311 44.3107 75.8707 43.909C73.1387 40.0521 70.3264 36.597 67.5141 33.4633C73.4601 27.5976 79.4865 23.58 84.3879 23.58C85.4325 23.58 86.3967 23.8211 87.2002 24.3032ZM78.2009 71.9517C76.7545 74.5229 75.0672 77.0941 73.2994 79.6654C70.3264 79.9065 67.3534 79.9868 64.3001 79.9868C61.1663 79.9868 58.1933 79.9065 55.3007 79.6654C53.5329 77.0941 51.9259 74.5229 50.4796 71.9517C48.9529 69.3001 47.5066 66.5681 46.221 63.9165C47.5066 61.2649 48.9529 58.5329 50.4796 55.8813C51.9259 53.3101 53.6133 50.7389 55.381 48.1676C58.354 47.9265 61.327 47.8462 64.3804 47.8462C67.5141 47.8462 70.4871 47.9265 73.3798 48.1676C75.1475 50.7389 76.7545 53.3101 78.2009 55.8813C79.7275 58.5329 81.1739 61.2649 82.4595 63.9165C81.0935 66.5681 79.7275 69.2197 78.2009 71.9517ZM84.87 69.3001C86.0753 72.1124 87.0395 74.8443 87.9234 77.5763C85.1914 78.2191 82.2988 78.7012 79.2454 79.1029C80.2096 77.5763 81.2542 75.9692 82.1381 74.2818C83.1023 72.5945 83.9862 70.9071 84.87 69.3001ZM64.3001 91.0753C62.3716 88.9862 60.5235 86.7363 58.7558 84.4061C60.6039 84.4865 62.452 84.5668 64.3001 84.5668C66.1481 84.5668 67.9962 84.4865 69.8443 84.4061C68.0766 86.7363 66.2285 88.9862 64.3001 91.0753ZM49.3547 79.0226C46.3013 78.6208 43.4087 78.1387 40.6767 77.4959C41.5606 74.8443 42.5248 72.032 43.7301 69.2197C44.6139 70.8267 45.4978 72.5141 46.462 74.1211C47.4262 75.8889 48.3905 77.4156 49.3547 79.0226ZM43.7301 58.5329C42.5248 55.7206 41.5606 52.9887 40.6767 50.2567C43.4087 49.6139 46.3013 49.1318 49.3547 48.7301C48.3905 50.2567 47.3459 51.8638 46.462 53.5512C45.4978 55.2385 44.6139 56.9259 43.7301 58.5329ZM64.3001 36.7577C66.2285 38.8468 68.0766 41.0967 69.8443 43.4269C67.9962 43.3465 66.1481 43.2662 64.3001 43.2662C62.452 43.2662 60.6039 43.3465 58.7558 43.4269C60.5235 41.0967 62.3716 38.8468 64.3001 36.7577ZM82.1381 53.6315L79.2454 48.8104C82.2988 49.2122 85.1914 49.6943 87.9234 50.3371C87.0395 52.9887 86.0753 55.801 84.87 58.6133C83.9862 56.9259 83.1023 55.2385 82.1381 53.6315ZM38.3465 40.6146C36.9805 32.1776 38.1055 26.2316 41.3999 24.3032C42.2034 23.8211 43.1676 23.58 44.2122 23.58C49.0333 23.58 55.0596 27.5173 61.086 33.4633C58.2737 36.5166 55.4614 40.0521 52.7294 43.909C48.069 44.3107 43.6497 45.0339 39.4714 45.9178C38.9893 44.0697 38.6679 42.3019 38.3465 40.6146ZM18.4997 63.9165C18.4997 60.14 23.0797 56.1224 31.1149 53.1494C32.7219 52.5066 34.4896 51.9441 36.2574 51.462C37.543 55.4796 39.15 59.7382 41.0785 63.9969C39.15 68.2555 37.4626 72.4338 36.2574 76.4513C25.1689 73.2373 18.4997 68.4162 18.4997 63.9165ZM41.3999 103.53C38.1055 101.601 36.9805 95.6554 38.3465 87.2184C38.5876 85.5311 38.9893 83.7633 39.4714 81.9152C43.6497 82.8795 48.069 83.5223 52.7294 83.924C55.4614 87.7809 58.2737 91.236 61.086 94.3697C55.14 100.235 49.1136 104.253 44.2122 104.253C43.1676 104.253 42.2034 104.012 41.3999 103.53ZM90.2536 87.2184C91.6196 95.6554 90.4946 101.601 87.2002 103.53C86.3967 104.012 85.4325 104.253 84.3879 104.253C79.5668 104.253 73.5405 100.316 67.5141 94.3697C70.3264 91.3164 73.1387 87.7809 75.8707 83.924C80.5311 83.5223 84.9504 82.7991 89.1287 81.9152C89.6108 83.7633 89.9322 85.5311 90.2536 87.2184ZM97.4852 74.6836C95.8782 75.3264 94.1105 75.8889 92.3427 76.371C91.0571 72.3534 89.4501 68.0948 87.5216 63.8362C89.4501 59.5775 91.1375 55.3992 92.3427 51.3817C103.431 54.5957 110.1 59.4168 110.1 63.9165C110.1 67.693 105.44 71.7106 97.4852 74.6836Z" fill="#836B9C"/>
</svg>
