<svg width="128" height="128" viewBox="0 0 128 128" fill="none" xmlns="http://www.w3.org/2000/svg">
<path d="M64.5 31C49.6997 31 40.4529 38.3309 36.75 52.9986C42.2983 45.6669 48.7753 42.9176 56.1733 44.7507C60.3973 45.7941 63.416 48.8295 66.759 52.1933C72.1998 57.6652 78.4973 64 92.25 64C107.049 64 116.297 56.6683 120 41.9971C114.451 49.3331 107.975 52.0824 100.576 50.2493C96.3527 49.2051 93.3375 46.1705 89.9901 42.8067C84.5528 37.3348 78.2571 31 64.5 31ZM36.75 64C21.9506 64 12.7029 71.3317 9 86.0029C14.5483 78.6669 21.0244 75.9176 28.4233 77.7507C32.6473 78.7949 35.666 81.8295 39.009 85.1933C44.4498 90.6652 50.7473 97 64.5 97C79.2994 97 88.5471 89.6691 92.25 75.0014C86.7009 82.3331 80.2247 85.0824 72.8259 83.2493C68.6027 82.2059 65.5875 79.1705 62.2401 75.8067C56.8028 70.3348 50.5071 64 36.75 64Z" fill="#F4F3EE"/>
</svg>
