<svg width="128" height="128" viewBox="0 0 128 128" fill="none" xmlns="http://www.w3.org/2000/svg">
<path fill-rule="evenodd" clip-rule="evenodd" d="M64 36C52.2666 36 44.9334 42.2857 42 54.8571C46.4 48.5714 51.5334 46.2143 57.4 47.7857C60.7473 48.6822 63.1397 51.284 65.7878 54.1641C70.1018 58.8557 75.0947 64.2857 86 64.2857C97.7335 64.2857 105.066 57.9999 108 45.4286C103.6 51.7142 98.4665 54.0714 92.6 52.4999C89.2529 51.6033 86.8605 49.0016 84.2123 46.1216C79.8985 41.43 74.9053 36 64 36ZM42 64.2857C30.2666 64.2857 22.9333 70.5713 20 83.1429C24.4 76.857 29.5334 74.4999 35.4 76.0713C38.7473 76.9679 41.1397 79.5697 43.7878 82.4495C48.1018 87.1412 53.0947 92.5714 64 92.5714C75.7334 92.5714 83.0665 86.2857 86 73.7142C81.6 79.9999 76.4666 82.3571 70.6 80.7857C67.2527 79.889 64.8603 77.2873 62.2122 74.4072C57.8982 69.7156 52.9053 64.2857 42 64.2857Z" stroke="#F4F3EE" stroke-width="3" stroke-linejoin="round"/>
</svg>
