<svg width="128" height="128" viewBox="0 0 128 128" fill="none" xmlns="http://www.w3.org/2000/svg">
<path d="M30.6 103V47.3H11.2V35H64V47.3H44.6V103H30.6ZM93.3914 103.9C80.3914 103.9 71.9914 97.7 67.8914 89.6L79.2914 83C82.2914 87.9 86.1914 91.5 93.0914 91.5C98.8914 91.5 102.591 88.6 102.591 84.6C102.591 79.8 98.7914 78.1 92.3914 75.3L88.8914 73.8C78.7914 69.5 72.0914 64.1 72.0914 52.7C72.0914 42.2 80.0914 34.2 92.5914 34.2C101.491 34.2 107.891 37.3 112.491 45.4L101.591 52.4C99.1914 48.1 96.5914 46.4 92.5914 46.4C88.4914 46.4 85.8914 49 85.8914 52.4C85.8914 56.6 88.4914 58.3 94.4914 60.9L97.9914 62.4C109.891 67.5 116.591 72.7 116.591 84.4C116.591 97 106.691 103.9 93.3914 103.9Z" fill="#F4F3EE"/>
</svg>
