<svg width="128" height="128" viewBox="0 0 128 128" fill="none" xmlns="http://www.w3.org/2000/svg">
<path d="M32.9 103V38.6H11.3V35H58.6V38.6H37V103H32.9ZM88.4063 103.8C75.5063 103.8 68.9063 97 65.6063 90.2L69.1063 88.5C72.3063 94.5 77.4063 100.2 88.3062 100.2C97.2063 100.2 104.506 95 104.506 86.4C104.506 78.5 100.106 74.2 90.6063 69.8L84.3063 66.9C74.8063 62.5 70.1063 58 70.1063 49.4C70.1063 40 77.6063 34.2 86.8063 34.2C95.9063 34.2 101.006 38.9 104.206 44L101.006 46.1C98.2063 41.6 94.3063 37.8 86.8063 37.8C78.8063 37.8 74.1063 42.4 74.1063 49.3C74.1063 56.1 77.5063 59.4 85.9063 63.3L92.2063 66.2C103.206 71.2 108.506 77 108.506 86.4C108.506 97 100.106 103.8 88.4063 103.8Z" fill="#F4F3EE"/>
</svg>
