<svg width="128" height="128" viewBox="0 0 128 128" fill="none" xmlns="http://www.w3.org/2000/svg">
<path d="M63 24C40.9292 24 23 41.9292 23 64C23 86.0708 40.9292 104 63 104C85.0708 104 103 86.0708 103 64C103 41.9292 85.0708 24 63 24ZM63 27.4783C83.191 27.4783 99.5217 43.809 99.5217 64C99.5217 84.191 83.191 100.522 63 100.522C42.809 100.522 26.4783 84.191 26.4783 64C26.4783 43.809 42.809 27.4783 63 27.4783ZM68.8832 50.1651C62.9597 50.1651 59.8071 54.3587 58.1393 58.837C58.1393 58.837 53.9217 69.7647 53.5808 70.6882C53.56 69.8238 52.9389 58.9592 52.9389 58.9592C52.5771 53.4966 47.5936 50.1821 43.5571 50.1821L48.4178 79.8254C54.623 79.8045 57.9573 75.6075 59.7052 71.1501C59.7052 71.1501 63.4191 61.5104 63.5808 61.0686C63.6208 61.4895 66.2507 79.8254 66.2507 79.8254C72.4559 79.8254 75.8109 75.8891 77.6196 71.5917L86.2948 50.1651C80.1505 50.1651 76.9181 54.3587 75.252 58.837C75.252 58.837 71.7765 69.7239 71.5156 70.6474C71.4148 69.7239 68.8832 50.1651 68.8832 50.1651Z" fill="#F4F3EE"/>
</svg>
